<svg width="16" height="16" viewBox="0 0 16 16" fill="none" xmlns="http://www.w3.org/2000/svg">
    <style>
    	#mapleleaf { fill: #FF0000; }

		@media (prefers-color-scheme: dark) {
			#mapleleaf { fill: #ffffff; }
		}
    </style>
<path id="mapleleaf" d="M11 10.3333C11.1254 10.0525 15 8.01288 15 8.01288C15 8.01288 14.3085 7.85942 14.25 7.76667C14.1301 7.58374 14.75 5.43333 14.75 5.43333C14.75 5.43333 12.987 5.96183 12.75 5.9C12.5716 5.85363 12.25 4.96667 12.25 4.96667L11.0386 6.07803C10.4811 6.54693 10.3587 6.65926 10.25 6.6C10.1747 6.55878 10.1744 6.36658 10.2051 6.15017L11 2.4C11 2.4 9.54719 3.21053 9.33811 3.18219C9.14855 3.15642 7.98606 1 7.98606 1C7.98606 1 6.72302 3.28953 6.5 3.33333C6.29371 3.37198 5 2.4 5 2.4L5.7726 6.20169C5.7949 6.38719 5.81969 6.56135 5.75 6.6C5.64685 6.65926 5.52688 6.57132 5 6.13333L3.5 4.96667C3.5 4.96667 3.44235 5.81756 3.25 5.9C3.02977 5.99275 1.25 5.43333 1.25 5.43333C1.25 5.43333 1.78067 7.53479 1.75 7.76667C1.73327 7.89549 1 8 1 8C1 8 4.67473 10.0757 4.75 10.3333C4.79182 10.4776 4.5 11.5 4.5 11.5C4.5 11.5 7.2887 10.848 7.46154 11C7.57862 11.1056 7.46154 15 7.46154 15H8.53846C8.53846 15 8.40744 11.1108 8.53846 11C8.73918 10.8325 11.5 11.5 11.5 11.5C11.5 11.5 10.9415 10.4647 11 10.3333Z" fill="#FF0000"/>
</svg>
